<svg width="127" height="98" viewBox="0 0 127 98" fill="none" xmlns="http://www.w3.org/2000/svg">
<path fill-rule="evenodd" clip-rule="evenodd" d="M32.7267 22.7857C38.8822 30.1768 43.7834 37.5911 46.8664 43.8097C48.473 42.9448 50.1737 42.1979 51.9521 41.5833C50.2234 39.2595 48.5207 36.7462 46.9276 33.6281C44.0239 27.9449 41.4833 20.3143 39.2137 7.89488C38.8156 5.71613 40.2042 3.16009 42.3153 2.18581C44.4263 1.21153 46.4604 2.18794 46.8586 4.3667C48.7797 14.8797 50.8406 21.4844 53.0141 26.2623C53.1999 23.853 53.5931 21.2642 54.2989 18.4571C54.959 15.832 56.5063 14.6964 57.7549 15.9208C59.0035 17.1453 59.4805 20.266 58.8205 22.8912C57.6636 27.4922 57.8837 30.3375 58.4504 35.2826C59.075 36.1175 59.7207 36.9514 60.3932 37.8198C60.8512 38.4112 61.3216 39.0187 61.8061 39.6533C62.5246 39.6122 63.2495 39.5913 63.98 39.5913C64.5668 39.5913 65.1501 39.6048 65.7292 39.6314C66.0173 39.2512 66.3004 38.8814 66.5788 38.5195C66.5894 38.3196 66.6057 38.1195 66.6281 37.9198C66.7104 37.1862 66.7904 36.4965 66.8662 35.8434L66.8668 35.8379L66.8682 35.8255L66.869 35.8188C67.5214 30.197 67.8593 27.2844 66.6219 22.3632C65.9618 19.738 66.4389 16.6173 67.6875 15.3928C68.9361 14.1684 70.4834 15.304 71.1435 17.9292C72.3072 22.557 72.6209 26.5917 72.5572 30.2071C73.0374 29.4053 73.5093 28.5582 73.9762 27.6445C76.484 22.736 78.851 15.8338 81.037 3.87128C81.4351 1.69253 83.4693 0.716112 85.5803 1.69039C87.6914 2.66468 89.08 5.22072 88.6818 7.39947C86.4123 19.8189 83.8717 27.4495 80.968 33.1327C79.2882 36.4204 77.4866 39.0357 75.6611 41.4655C77.4531 42.0641 79.168 42.7963 80.7895 43.648C83.8908 37.7068 88.5375 30.7996 94.2733 23.9126C107.588 7.92504 121.73 -1.89939 125.86 1.96906C129.99 5.8375 122.544 21.9339 109.229 37.9215C103.552 44.7383 97.724 50.4347 92.5862 54.4269C93.8221 56.4287 94.7847 58.5754 95.4309 60.8299C100.542 64.7241 103.579 69.5949 103.579 74.8799C103.579 87.6488 85.8499 98 63.98 98C42.1101 98 24.3811 87.6488 24.3811 74.8799C24.3811 69.5949 27.4182 64.7241 32.5291 60.8299C33.2043 58.474 34.2251 56.2358 35.5421 54.1577C30.1389 50.1444 23.8682 44.1157 17.7709 36.7946C4.45587 20.8071 -2.99012 4.71069 1.13982 0.842237C5.26975 -3.02621 19.4117 6.79823 32.7267 22.7857ZM81.4995 79.0172C84.4155 79.0172 86.7794 76.0752 86.7794 72.4462C86.7794 68.8171 84.4155 65.8752 81.4995 65.8752C78.5835 65.8752 76.2196 68.8171 76.2196 72.4462C76.2196 76.0752 78.5835 79.0172 81.4995 79.0172ZM53.6603 72.4462C53.6603 76.0752 51.2964 79.0172 48.3804 79.0172C45.4644 79.0172 43.1006 76.0752 43.1006 72.4462C43.1006 68.8171 45.4644 65.8752 48.3804 65.8752C51.2964 65.8752 53.6603 68.8171 53.6603 72.4462ZM62.3577 84.404C63.6059 85.6584 65.794 85.6584 67.0423 84.404L67.7369 83.706C69.542 81.8919 68.106 79.0172 65.3946 79.0172H64.0054C61.294 79.0172 59.8579 81.8919 61.6631 83.706L62.3577 84.404Z" fill="white"/>
</svg>
